<svg xmlns="http://www.w3.org/2000/svg" viewBox="0 0 32 32">
  <rect width="32" height="32" rx="6" fill="#0A0F1C"/>
  <path d="M8 6h5.5c3.5 0 5.5 1.8 5.5 4.5 0 1.8-1 3.2-2.6 3.8v.1c2 .5 3.3 2.2 3.3 4.2C19.7 21.8 17.5 24 13.8 24H8V6zm4.5 7.2c1.8 0 2.8-.9 2.8-2.3s-1-2.2-2.8-2.2h-1.3v4.5h1.3zm.4 8.1c2 0 3.1-1 3.1-2.6s-1.1-2.5-3.1-2.5h-1.7v5.1h1.7z" fill="#10B981"/>
  <path d="M21 14l4 5h-3l-2.5-3.1L17 19h-3l4-5-3.7-4.5h3L19.5 13 21.8 9.5h3L21 14z" fill="#10B981" opacity="0.6"/>
  <circle cx="25" cy="7" r="3" fill="#10B981" opacity="0.8"/>
  <path d="M24 7l1 1.5L26.5 6" stroke="#0A0F1C" stroke-width="1" fill="none" stroke-linecap="round" stroke-linejoin="round"/>
</svg>
