<svg xmlns="http://www.w3.org/2000/svg" viewBox="0 0 240 40">
  <!-- Icon -->
  <rect x="0" y="4" width="32" height="32" rx="6" fill="#0A0F1C" stroke="#10B981" stroke-width="1"/>
  <path d="M8 10h5c3 0 4.5 1.5 4.5 3.5 0 1.5-.8 2.6-2.2 3.1v.1c1.7.4 2.7 1.8 2.7 3.4 0 2.5-1.8 4-5 4H8V10zm4 6c1.5 0 2.3-.7 2.3-1.8s-.8-1.8-2.3-1.8h-1v3.6h1zm.3 6.5c1.6 0 2.5-.8 2.5-2.1s-.9-2-2.5-2H11v4.1h1.3z" fill="#10B981"/>
  <circle cx="26" cy="10" r="3" fill="#10B981" opacity="0.8"/>
  <path d="M25 10l.8 1.2L27.2 9" stroke="#0A0F1C" stroke-width="0.8" fill="none" stroke-linecap="round" stroke-linejoin="round"/>
  <!-- Text -->
  <text x="40" y="28" font-family="system-ui, -apple-system, sans-serif" font-size="22" font-weight="800" fill="white">Bet<tspan fill="#10B981">Analitika</tspan></text>
</svg>
